<mxfile host="app.diagrams.net" modified="2023-08-04T06:45:36.870Z" agent="Mozilla/5.0 (Windows NT 10.0; Win64; x64) AppleWebKit/537.36 (KHTML, like Gecko) Chrome/115.0.0.0 Safari/537.36" etag="-4bm1gOmsZxBe8XCAHbY" version="21.6.6" type="github">
  <diagram name="第 1 页" id="O-Jhzu-0nHvB-84oUUoi">
    <mxGraphModel dx="1434" dy="790" grid="1" gridSize="10" guides="1" tooltips="1" connect="1" arrows="1" fold="1" page="1" pageScale="1" pageWidth="827" pageHeight="1169" math="0" shadow="0">
      <root>
        <mxCell id="0" />
        <mxCell id="1" parent="0" />
        <mxCell id="-wAlXCzDXkSY3gVBRplQ-1" value="公安网到数据域" style="swimlane;horizontal=0;whiteSpace=wrap;html=1;startSize=23;movable=0;resizable=0;rotatable=0;deletable=0;editable=0;locked=1;connectable=0;" parent="1" vertex="1">
          <mxGeometry x="50" y="230" width="740" height="290" as="geometry" />
        </mxCell>
        <mxCell id="-wAlXCzDXkSY3gVBRplQ-9" style="edgeStyle=orthogonalEdgeStyle;rounded=0;orthogonalLoop=1;jettySize=auto;html=1;exitX=1;exitY=0.5;exitDx=0;exitDy=0;entryX=0;entryY=0.5;entryDx=0;entryDy=0;" parent="-wAlXCzDXkSY3gVBRplQ-1" source="-wAlXCzDXkSY3gVBRplQ-3" target="-wAlXCzDXkSY3gVBRplQ-4" edge="1">
          <mxGeometry relative="1" as="geometry">
            <Array as="points">
              <mxPoint x="500" y="140" />
              <mxPoint x="500" y="80" />
            </Array>
          </mxGeometry>
        </mxCell>
        <mxCell id="-wAlXCzDXkSY3gVBRplQ-10" style="edgeStyle=orthogonalEdgeStyle;rounded=0;orthogonalLoop=1;jettySize=auto;html=1;exitX=1;exitY=0.5;exitDx=0;exitDy=0;entryX=0;entryY=0.5;entryDx=0;entryDy=0;" parent="-wAlXCzDXkSY3gVBRplQ-1" source="-wAlXCzDXkSY3gVBRplQ-21" target="-wAlXCzDXkSY3gVBRplQ-5" edge="1">
          <mxGeometry relative="1" as="geometry">
            <Array as="points">
              <mxPoint x="500" y="140" />
              <mxPoint x="500" y="210" />
            </Array>
          </mxGeometry>
        </mxCell>
        <mxCell id="-wAlXCzDXkSY3gVBRplQ-3" value="10.24.157.112 代理服务&lt;br&gt;auth&lt;br&gt;gateway&lt;br&gt;proxy" style="rounded=1;whiteSpace=wrap;html=1;" parent="-wAlXCzDXkSY3gVBRplQ-1" vertex="1">
          <mxGeometry x="260" y="100" width="120" height="80" as="geometry" />
        </mxCell>
        <mxCell id="-wAlXCzDXkSY3gVBRplQ-4" value="正式接口平台&lt;br&gt;restful-interface&lt;br&gt;执法办案web1、5、10" style="rounded=1;whiteSpace=wrap;html=1;" parent="-wAlXCzDXkSY3gVBRplQ-1" vertex="1">
          <mxGeometry x="530" y="50" width="120" height="60" as="geometry" />
        </mxCell>
        <mxCell id="-wAlXCzDXkSY3gVBRplQ-5" value="培训学校接口平台&lt;br&gt;restful-interface&lt;br&gt;培训学校web2" style="rounded=1;whiteSpace=wrap;html=1;strokeColor=#9673a6;fillColor=#e1d5e7;" parent="-wAlXCzDXkSY3gVBRplQ-1" vertex="1">
          <mxGeometry x="530" y="180" width="120" height="60" as="geometry" />
        </mxCell>
        <mxCell id="-wAlXCzDXkSY3gVBRplQ-13" style="edgeStyle=orthogonalEdgeStyle;rounded=0;orthogonalLoop=1;jettySize=auto;html=1;exitX=0;exitY=0;exitDx=80;exitDy=65;exitPerimeter=0;entryX=0;entryY=0.5;entryDx=0;entryDy=0;" parent="-wAlXCzDXkSY3gVBRplQ-1" source="-wAlXCzDXkSY3gVBRplQ-11" target="-wAlXCzDXkSY3gVBRplQ-3" edge="1">
          <mxGeometry relative="1" as="geometry" />
        </mxCell>
        <mxCell id="-wAlXCzDXkSY3gVBRplQ-11" value="请求http://10.24.157.112:12111/interface-open/open-api/demo/hello?param=yu 是到正式环境" style="shape=note;whiteSpace=wrap;html=1;backgroundOutline=1;darkOpacity=0.05;" parent="-wAlXCzDXkSY3gVBRplQ-1" vertex="1">
          <mxGeometry x="70" y="40" width="80" height="100" as="geometry" />
        </mxCell>
        <mxCell id="-wAlXCzDXkSY3gVBRplQ-14" style="edgeStyle=orthogonalEdgeStyle;rounded=0;orthogonalLoop=1;jettySize=auto;html=1;exitX=0;exitY=0;exitDx=80;exitDy=65;exitPerimeter=0;entryX=0;entryY=0.5;entryDx=0;entryDy=0;" parent="-wAlXCzDXkSY3gVBRplQ-1" source="-wAlXCzDXkSY3gVBRplQ-12" target="-wAlXCzDXkSY3gVBRplQ-3" edge="1">
          <mxGeometry relative="1" as="geometry" />
        </mxCell>
        <mxCell id="-wAlXCzDXkSY3gVBRplQ-12" value="请求http://10.24.157.112:12111/interface-open/&lt;b&gt;&lt;font color=&quot;#ff3333&quot;&gt;interface-tra&lt;/font&gt;&lt;/b&gt;/open-api/demo/hello?param=yu 是到培训学校环境" style="shape=note;whiteSpace=wrap;html=1;backgroundOutline=1;darkOpacity=0.05;strokeColor=#9673a6;fillColor=#e1d5e7;" parent="-wAlXCzDXkSY3gVBRplQ-1" vertex="1">
          <mxGeometry x="70" y="170" width="80" height="100" as="geometry" />
        </mxCell>
        <mxCell id="-wAlXCzDXkSY3gVBRplQ-21" value="华为云网关代理" style="ellipse;shape=cloud;whiteSpace=wrap;html=1;" parent="-wAlXCzDXkSY3gVBRplQ-1" vertex="1">
          <mxGeometry x="400" y="100" width="80" height="80" as="geometry" />
        </mxCell>
        <mxCell id="-wAlXCzDXkSY3gVBRplQ-2" value="数据域到公安网" style="swimlane;horizontal=0;whiteSpace=wrap;html=1;startSize=23;movable=0;resizable=0;rotatable=0;deletable=0;editable=0;locked=1;connectable=0;" parent="1" vertex="1">
          <mxGeometry x="50" y="520" width="740" height="350" as="geometry" />
        </mxCell>
        <mxCell id="-wAlXCzDXkSY3gVBRplQ-37" value="" style="ellipse;shape=cloud;whiteSpace=wrap;html=1;" parent="-wAlXCzDXkSY3gVBRplQ-2" vertex="1">
          <mxGeometry x="304" y="220" width="266" height="130" as="geometry" />
        </mxCell>
        <mxCell id="-wAlXCzDXkSY3gVBRplQ-33" value="&lt;h1 style=&quot;&quot;&gt;&lt;br&gt;&lt;/h1&gt;" style="ellipse;shape=cloud;whiteSpace=wrap;html=1;align=left;labelPosition=right;verticalLabelPosition=top;verticalAlign=bottom;horizontal=1;" parent="-wAlXCzDXkSY3gVBRplQ-2" vertex="1">
          <mxGeometry x="250" y="-25" width="490" height="275" as="geometry" />
        </mxCell>
        <mxCell id="-wAlXCzDXkSY3gVBRplQ-24" style="edgeStyle=orthogonalEdgeStyle;rounded=0;orthogonalLoop=1;jettySize=auto;html=1;exitX=1;exitY=0.5;exitDx=0;exitDy=0;entryX=0.075;entryY=0.525;entryDx=0;entryDy=0;entryPerimeter=0;" parent="-wAlXCzDXkSY3gVBRplQ-2" source="-wAlXCzDXkSY3gVBRplQ-15" target="-wAlXCzDXkSY3gVBRplQ-23" edge="1">
          <mxGeometry relative="1" as="geometry" />
        </mxCell>
        <mxCell id="-wAlXCzDXkSY3gVBRplQ-15" value="正式接口平台&lt;br&gt;&lt;font color=&quot;#ff4912&quot;&gt;interface-service-interval&lt;/font&gt;&lt;br&gt;执法办案web3、4、7" style="rounded=1;whiteSpace=wrap;html=1;" parent="-wAlXCzDXkSY3gVBRplQ-2" vertex="1">
          <mxGeometry x="70" y="50" width="120" height="80" as="geometry" />
        </mxCell>
        <mxCell id="-wAlXCzDXkSY3gVBRplQ-31" style="edgeStyle=orthogonalEdgeStyle;rounded=0;orthogonalLoop=1;jettySize=auto;html=1;exitX=1;exitY=0.5;exitDx=0;exitDy=0;entryX=0.16;entryY=0.55;entryDx=0;entryDy=0;entryPerimeter=0;" parent="-wAlXCzDXkSY3gVBRplQ-2" source="-wAlXCzDXkSY3gVBRplQ-16" target="-wAlXCzDXkSY3gVBRplQ-23" edge="1">
          <mxGeometry relative="1" as="geometry" />
        </mxCell>
        <mxCell id="-wAlXCzDXkSY3gVBRplQ-16" value="培训学校接口平台&lt;br&gt;restful-interface&lt;br&gt;培训学校web2" style="rounded=1;whiteSpace=wrap;html=1;fillColor=#e1d5e7;strokeColor=#9673a6;" parent="-wAlXCzDXkSY3gVBRplQ-2" vertex="1">
          <mxGeometry x="70" y="250" width="120" height="60" as="geometry" />
        </mxCell>
        <mxCell id="-wAlXCzDXkSY3gVBRplQ-17" value="10.24.157.110 代理服务&lt;br&gt;auth、gateway、proxy" style="rounded=1;whiteSpace=wrap;html=1;" parent="-wAlXCzDXkSY3gVBRplQ-2" vertex="1">
          <mxGeometry x="390" y="5" width="120" height="60" as="geometry" />
        </mxCell>
        <mxCell id="-wAlXCzDXkSY3gVBRplQ-18" value="10.24.101.5 代理服务&lt;br&gt;auth、gateway、proxy" style="rounded=1;whiteSpace=wrap;html=1;" parent="-wAlXCzDXkSY3gVBRplQ-2" vertex="1">
          <mxGeometry x="390" y="80" width="120" height="60" as="geometry" />
        </mxCell>
        <mxCell id="-wAlXCzDXkSY3gVBRplQ-19" value="10.24.0.247 代理服务&lt;br&gt;auth、gateway、proxy" style="rounded=1;whiteSpace=wrap;html=1;" parent="-wAlXCzDXkSY3gVBRplQ-2" vertex="1">
          <mxGeometry x="550" y="150" width="120" height="60" as="geometry" />
        </mxCell>
        <mxCell id="-wAlXCzDXkSY3gVBRplQ-20" value="10.24.101.9 代理服务&lt;br&gt;auth、gateway、proxy" style="rounded=1;whiteSpace=wrap;html=1;fillColor=#e1d5e7;strokeColor=#9673a6;" parent="-wAlXCzDXkSY3gVBRplQ-2" vertex="1">
          <mxGeometry x="390" y="250" width="120" height="60" as="geometry" />
        </mxCell>
        <mxCell id="-wAlXCzDXkSY3gVBRplQ-25" style="edgeStyle=orthogonalEdgeStyle;rounded=0;orthogonalLoop=1;jettySize=auto;html=1;exitX=0.875;exitY=0.5;exitDx=0;exitDy=0;exitPerimeter=0;entryX=0;entryY=0.5;entryDx=0;entryDy=0;" parent="-wAlXCzDXkSY3gVBRplQ-2" source="-wAlXCzDXkSY3gVBRplQ-23" target="-wAlXCzDXkSY3gVBRplQ-17" edge="1">
          <mxGeometry relative="1" as="geometry" />
        </mxCell>
        <mxCell id="-wAlXCzDXkSY3gVBRplQ-26" style="edgeStyle=orthogonalEdgeStyle;rounded=0;orthogonalLoop=1;jettySize=auto;html=1;exitX=0.875;exitY=0.5;exitDx=0;exitDy=0;exitPerimeter=0;entryX=0;entryY=0.5;entryDx=0;entryDy=0;" parent="-wAlXCzDXkSY3gVBRplQ-2" source="-wAlXCzDXkSY3gVBRplQ-23" target="-wAlXCzDXkSY3gVBRplQ-18" edge="1">
          <mxGeometry relative="1" as="geometry" />
        </mxCell>
        <mxCell id="-wAlXCzDXkSY3gVBRplQ-29" value="&lt;font color=&quot;#ffffcc&quot;&gt;其他路径&lt;/font&gt;" style="edgeLabel;html=1;align=center;verticalAlign=middle;resizable=0;points=[];" parent="-wAlXCzDXkSY3gVBRplQ-26" vertex="1" connectable="0">
          <mxGeometry x="0.0627" relative="1" as="geometry">
            <mxPoint as="offset" />
          </mxGeometry>
        </mxCell>
        <mxCell id="-wAlXCzDXkSY3gVBRplQ-30" value="&lt;font color=&quot;#ff0000&quot;&gt;其他路径&lt;br&gt;110、5负载轮询&lt;br&gt;&lt;/font&gt;" style="edgeLabel;html=1;align=center;verticalAlign=middle;resizable=0;points=[];" parent="-wAlXCzDXkSY3gVBRplQ-26" vertex="1" connectable="0">
          <mxGeometry x="0.0725" y="-2" relative="1" as="geometry">
            <mxPoint as="offset" />
          </mxGeometry>
        </mxCell>
        <mxCell id="-wAlXCzDXkSY3gVBRplQ-27" style="edgeStyle=orthogonalEdgeStyle;rounded=0;orthogonalLoop=1;jettySize=auto;html=1;exitX=0.875;exitY=0.5;exitDx=0;exitDy=0;exitPerimeter=0;entryX=0;entryY=0.5;entryDx=0;entryDy=0;" parent="-wAlXCzDXkSY3gVBRplQ-2" source="-wAlXCzDXkSY3gVBRplQ-23" target="-wAlXCzDXkSY3gVBRplQ-19" edge="1">
          <mxGeometry relative="1" as="geometry" />
        </mxCell>
        <mxCell id="-wAlXCzDXkSY3gVBRplQ-28" value="&lt;font color=&quot;#2414ff&quot;&gt;如果匹配这个路径&lt;br&gt;/interface-proxy&lt;br&gt;/api/remote/ftp/file&lt;/font&gt;" style="edgeLabel;html=1;align=center;verticalAlign=middle;resizable=0;points=[];" parent="-wAlXCzDXkSY3gVBRplQ-27" vertex="1" connectable="0">
          <mxGeometry x="0.2556" y="-1" relative="1" as="geometry">
            <mxPoint as="offset" />
          </mxGeometry>
        </mxCell>
        <mxCell id="-wAlXCzDXkSY3gVBRplQ-32" style="edgeStyle=orthogonalEdgeStyle;rounded=0;orthogonalLoop=1;jettySize=auto;html=1;exitX=0.875;exitY=0.5;exitDx=0;exitDy=0;exitPerimeter=0;entryX=0;entryY=0.5;entryDx=0;entryDy=0;" parent="-wAlXCzDXkSY3gVBRplQ-2" source="-wAlXCzDXkSY3gVBRplQ-23" target="-wAlXCzDXkSY3gVBRplQ-20" edge="1">
          <mxGeometry relative="1" as="geometry" />
        </mxCell>
        <mxCell id="-wAlXCzDXkSY3gVBRplQ-23" value="华为云网关代理" style="ellipse;shape=cloud;whiteSpace=wrap;html=1;" parent="-wAlXCzDXkSY3gVBRplQ-2" vertex="1">
          <mxGeometry x="220" y="140" width="80" height="80" as="geometry" />
        </mxCell>
        <mxCell id="-wAlXCzDXkSY3gVBRplQ-36" value="正式" style="text;strokeColor=none;align=center;fillColor=none;html=1;verticalAlign=middle;whiteSpace=wrap;rounded=0;fontSize=20;fontColor=#2B24FF;" parent="-wAlXCzDXkSY3gVBRplQ-2" vertex="1">
          <mxGeometry x="600" y="50" width="60" height="30" as="geometry" />
        </mxCell>
        <mxCell id="-wAlXCzDXkSY3gVBRplQ-38" value="培训" style="text;strokeColor=none;align=center;fillColor=none;html=1;verticalAlign=middle;whiteSpace=wrap;rounded=0;fontSize=20;fontColor=#2B24FF;" parent="-wAlXCzDXkSY3gVBRplQ-2" vertex="1">
          <mxGeometry x="510" y="290" width="60" height="30" as="geometry" />
        </mxCell>
        <mxCell id="-wAlXCzDXkSY3gVBRplQ-39" value="" style="endArrow=classic;startArrow=classic;html=1;rounded=0;entryX=0.451;entryY=1.05;entryDx=0;entryDy=0;entryPerimeter=0;exitX=1;exitY=0.25;exitDx=0;exitDy=0;" parent="1" source="-wAlXCzDXkSY3gVBRplQ-15" target="-wAlXCzDXkSY3gVBRplQ-4" edge="1">
          <mxGeometry width="50" height="50" relative="1" as="geometry">
            <mxPoint x="340" y="540" as="sourcePoint" />
            <mxPoint x="390" y="490" as="targetPoint" />
          </mxGeometry>
        </mxCell>
        <mxCell id="-wAlXCzDXkSY3gVBRplQ-40" value="进出由单独服务管理" style="edgeLabel;html=1;align=center;verticalAlign=middle;resizable=0;points=[];" parent="-wAlXCzDXkSY3gVBRplQ-39" vertex="1" connectable="0">
          <mxGeometry x="-0.085" y="-4" relative="1" as="geometry">
            <mxPoint as="offset" />
          </mxGeometry>
        </mxCell>
      </root>
    </mxGraphModel>
  </diagram>
</mxfile>
